<!-- Botón de editar con ícono SVG azul -->
                                    <svg class="icon-button"  xmlns="http://www.w3.org/2000/svg" width="20" height="20" viewBox="0 0 20 20"
                                        fill="none">
                                        <g clip-path="url(#clip0_191_221)">
                                            <path
                                                d="M18.6852 2.16177L17.2642 0.720462C16.791 0.240154 16.1705 0 15.5499 0C14.9294 0 14.3089 0.240154 13.8353 0.720078L0.485867 14.2602L0.00474381 18.649C-0.0558701 19.2016 0.373352 19.6734 0.906376 19.6734C0.940092 19.6734 0.973809 19.6715 1.00828 19.6677L5.33233 19.1831L18.6856 5.6392C19.6323 4.67897 19.6323 3.122 18.6852 2.16177ZM4.77582 18.0089L1.2515 18.405L1.64397 14.825L11.6411 4.68512L14.7767 7.86552L4.77582 18.0089ZM17.8283 4.77004L15.6337 6.99598L12.498 3.81557L14.6926 1.58963C14.9214 1.35754 15.226 1.22959 15.5499 1.22959C15.8738 1.22959 16.178 1.35754 16.4072 1.58963L17.8283 3.03094C18.3007 3.51048 18.3007 4.2905 17.8283 4.77004Z"
                                                fill="#0500FF" />
                                        </g>
                                        <defs>
                                            <clipPath id="clip0_191_221">
                                                <rect width="19.3964" height="19.6734" fill="white" />
                                            </clipPath>
                                        </defs>
                                    </svg>
