<svg width="17" height="19" viewBox="0 0 17 19" fill="none" xmlns="http://www.w3.org/2000/svg">
<g id="trash 1" clip-path="url(#clip0_191_219)">
<g id="Vector" filter="url(#filter0_d_191_219)">
<path d="M0.291689 2.32975H4.08348L5.30851 0.698924C5.47153 0.481915 5.68291 0.30578 5.92591 0.184468C6.16891 0.0631567 6.43687 0 6.70856 0L9.62532 0C9.89701 0 10.165 0.0631567 10.408 0.184468C10.651 0.30578 10.8623 0.481915 11.0254 0.698924L12.2504 2.32975H16.0422C16.1195 2.32975 16.1937 2.36043 16.2484 2.41504C16.3031 2.46966 16.3339 2.54373 16.3339 2.62097V3.2034C16.3339 3.28064 16.3031 3.35471 16.2484 3.40932C16.1937 3.46394 16.1195 3.49462 16.0422 3.49462H15.3531L14.1426 17.0472C14.1035 17.4817 13.903 17.8859 13.5805 18.1803C13.258 18.4746 12.8368 18.6379 12.3999 18.638H3.93399C3.49703 18.6379 3.0759 18.4746 2.75341 18.1803C2.43091 17.8859 2.23037 17.4817 2.19123 17.0472L0.980774 3.49462H0.291689C0.214333 3.49462 0.140142 3.46394 0.0854435 3.40932C0.0307446 3.35471 1.33514e-05 3.28064 1.33514e-05 3.2034V2.62097C1.33514e-05 2.54373 0.0307446 2.46966 0.0854435 2.41504C0.140142 2.36043 0.214333 2.32975 0.291689 2.32975ZM10.092 1.39785C10.0375 1.32572 9.96697 1.26716 9.88601 1.22674C9.80505 1.18633 9.71583 1.16515 9.62532 1.16487H6.70856C6.61805 1.16515 6.52882 1.18633 6.44787 1.22674C6.36691 1.26716 6.29641 1.32572 6.24188 1.39785L5.54185 2.32975H10.792L10.092 1.39785ZM3.35429 16.9416C3.36629 17.0868 3.43262 17.222 3.54005 17.3205C3.64749 17.419 3.78814 17.4735 3.93399 17.4731H12.3999C12.5457 17.4735 12.6864 17.419 12.7938 17.3205C12.9013 17.222 12.9676 17.0868 12.9796 16.9416L14.1828 3.49462H2.15112L3.35429 16.9416Z" fill="#DC3545"/>
</g>
</g>
<defs>
<filter id="filter0_d_191_219" x="-4" y="0" width="24.3339" height="26.638" filterUnits="userSpaceOnUse" color-interpolation-filters="sRGB">
<feFlood flood-opacity="0" result="BackgroundImageFix"/>
<feColorMatrix in="SourceAlpha" type="matrix" values="0 0 0 0 0 0 0 0 0 0 0 0 0 0 0 0 0 0 127 0" result="hardAlpha"/>
<feOffset dy="4"/>
<feGaussianBlur stdDeviation="2"/>
<feComposite in2="hardAlpha" operator="out"/>
<feColorMatrix type="matrix" values="0 0 0 0 0 0 0 0 0 0 0 0 0 0 0 0 0 0 0.25 0"/>
<feBlend mode="normal" in2="BackgroundImageFix" result="effect1_dropShadow_191_219"/>
<feBlend mode="normal" in="SourceGraphic" in2="effect1_dropShadow_191_219" result="shape"/>
</filter>
<clipPath id="clip0_191_219">
<rect width="16.3338" height="18.638" fill="white" transform="matrix(-1 0 0 1 16.3339 0)"/>
</clipPath>
</defs>
</svg>
